<svg width="32" height="32" viewBox="0 0 32 32" fill="none" xmlns="http://www.w3.org/2000/svg">
  <path d="M16 2C12.8 2 10 4.8 10 8C10 8.5 10.1 9 10.2 9.4C8.9 10.2 8 11.5 8 13C8 14.1 8.4 15.1 9.1 15.8C8.4 16.5 8 17.5 8 18.7C8 20.4 9 21.9 10.5 22.7C10.2 23.4 10 24.1 10 24.9C10 27.7 12.3 30 15.1 30H16.9C19.7 30 22 27.7 22 24.9C22 24.1 21.8 23.4 21.5 22.7C23 21.9 24 20.4 24 18.7C24 17.5 23.6 16.5 22.9 15.8C23.6 15.1 24 14.1 24 13C24 11.5 23.1 10.2 21.8 9.4C21.9 9 22 8.5 22 8C22 4.8 19.2 2 16 2Z" fill="#6366F1"/>
  <circle cx="13" cy="12" r="1.5" fill="white"/>
  <circle cx="19" cy="12" r="1.5" fill="white"/>
  <path d="M13 18C13 19.1 14.3 20 16 20C17.7 20 19 19.1 19 18" stroke="white" stroke-width="1.5" stroke-linecap="round"/>
</svg>